<?xml version="1.0" encoding="utf-8"?>
<!-- Svg Vector Icons : http://www.onlinewebfonts.com/icon -->
<!DOCTYPE svg PUBLIC "-//W3C//DTD SVG 1.1//EN" "http://www.w3.org/Graphics/SVG/1.1/DTD/svg11.dtd">
<svg version="1.1" xmlns="http://www.w3.org/2000/svg" xmlns:xlink="http://www.w3.org/1999/xlink" x="0px" y="0px" viewBox="0 0 1000 1000" enable-background="new 0 0 1000 1000" xml:space="preserve">
<metadata> Svg Vector Icons : http://www.onlinewebfonts.com/icon </metadata>
<g><path d="M383.1,431.7h33.7v235.7h-33.7V431.7L383.1,431.7z"/><path d="M484.1,398.1h33.7v303h-33.7V398.1L484.1,398.1z"/><path d="M585.1,431.7h33.7v235.7h-33.7V431.7L585.1,431.7z"/><path d="M916.5,10h-833C42.9,10,10,42.9,10,83.5v833c0,40.6,32.9,73.5,73.5,73.5h833c40.6,0,73.5-32.9,73.5-73.5v-833C990,42.9,957.1,10,916.5,10z M719.8,701.1c0,37.2-30.1,67.3-67.3,67.3h-303c-37.2,0-67.3-30.1-67.3-67.3V431.7v-67.3v-33.7h437.7V701.1z M753.5,297.1H618.8H383.1H248.5v-33.7h134.7v-33.7h235.7v33.7h134.7L753.5,297.1z"/></g>
</svg>