<?xml version="1.0" encoding="utf-8"?>
<!-- Svg Vector Icons : http://www.onlinewebfonts.com/icon -->
<!DOCTYPE svg PUBLIC "-//W3C//DTD SVG 1.1//EN" "http://www.w3.org/Graphics/SVG/1.1/DTD/svg11.dtd">
<svg version="1.1" xmlns="http://www.w3.org/2000/svg" xmlns:xlink="http://www.w3.org/1999/xlink" x="0px" y="0px" viewBox="0 0 1000 1000" enable-background="new 0 0 1000 1000" xml:space="preserve">
<metadata> Svg Vector Icons : http://www.onlinewebfonts.com/icon </metadata>
<g><path d="M500,789c13.9,0,25.1-11.3,25.1-25.1V412c0-13.9-11.3-25.1-25.1-25.1c-13.9,0-25.1,11.3-25.1,25.1v351.8C474.9,777.7,486.1,789,500,789z"/><path d="M650.8,789c13.9,0,25.1-11.3,25.1-25.1V412c0-13.9-11.3-25.1-25.1-25.1c-13.9,0-25.1,11.3-25.1,25.1v351.8C625.6,777.7,636.9,789,650.8,789z"/><path d="M349.2,789c13.9,0,25.1-11.3,25.1-25.1V412c0-13.9-11.3-25.1-25.1-25.1c-13.9,0-25.1,11.3-25.1,25.1v351.8C324.1,777.7,335.4,789,349.2,789z"/><path d="M851.8,110.5H701V60.3c0-27.7-22.5-50.3-50.3-50.3H349.2C321.5,10,299,32.5,299,60.3v50.3H148.2c-27.7,0-50.3,22.5-50.3,50.3V211c0,27.7,22.5,50.3,50.3,50.3v628.2c0,55.5,45,100.5,100.5,100.5l502.6,0c55.5,0,100.5-45,100.5-100.5V261.3c27.7,0,50.3-22.5,50.3-50.3v-50.3C902.1,133,879.5,110.5,851.8,110.5z M349.2,83.1c0-13.9,11.3-25.1,25.1-25.1h251.3c13.9,0,25.1,11.3,25.1,25.1v25.1c-24.3,0-301.5,0-301.5,0V83.1z M801.5,889.5c0,27.7-22.5,50.3-50.3,50.3H248.7c-27.7,0-50.3-22.5-50.3-50.3V261.3c34.5,0,574.8,0,603.1,0V889.5L801.5,889.5z M826.7,211H173.3c-13.9,0-25.1-11.3-25.1-25.1c0-13.9,11.3-25.1,25.1-25.1h653.3c13.9,0,25.1,11.3,25.1,25.1C851.8,199.8,840.5,211,826.7,211z"/></g>
</svg>